<svg width="76" height="54" viewBox="0 0 76 54" fill="none" xmlns="http://www.w3.org/2000/svg">
<path fill-rule="evenodd" clip-rule="evenodd" d="M30.2937 2.51127C30.5385 2.48417 30.7862 2.50554 31.0227 2.57417C31.2592 2.64281 31.4798 2.75735 31.672 2.91127C31.8643 3.06518 32.0243 3.25546 32.143 3.47122C32.2617 3.68698 32.3367 3.92401 32.3637 4.16877L34.2387 21.0438C34.2658 21.2885 34.2444 21.5362 34.1758 21.7727C34.1072 22.0092 33.9926 22.2298 33.8387 22.422C33.6848 22.6143 33.4945 22.7743 33.2788 22.893C33.063 23.0117 32.826 23.0867 32.5812 23.1138C32.0869 23.1685 31.5912 23.0246 31.203 22.7137C30.8148 22.4029 30.5659 21.9506 30.5112 21.4563L28.6362 4.58127C28.6091 4.33651 28.6305 4.08882 28.6991 3.85233C28.7678 3.61583 28.8823 3.39518 29.0362 3.20296C29.1902 3.01074 29.3804 2.85072 29.5962 2.73204C29.812 2.61336 30.049 2.53834 30.2937 2.51127Z" fill="#FE950B"/>
<path fill-rule="evenodd" clip-rule="evenodd" d="M18.1025 0.625C18.3894 12.0756 22.25 14.1812 31.1112 15.625L30.5506 10.1219L29.7763 8.26937C32.8006 7.00562 35.3469 6.26312 37.9888 6.25C40.6381 6.23688 43.1956 6.955 46.2463 8.28063L45.4494 10.1144L44.8869 15.625C53.75 14.1812 57.6106 12.0756 57.8994 0.625C70.1413 0.625 75.5 12.8125 75.5 30.625C61.7506 27.1094 53.9375 35.3125 53.9375 42.625H43.625L38 53.125L32.375 42.625H22.0625C22.0625 35.3125 14.2494 27.1094 0.5 30.625C0.5 12.8125 5.85687 0.625 18.1025 0.625Z" fill="#FE950B"/>
<path fill-rule="evenodd" clip-rule="evenodd" d="M45.7063 2.51127C45.4615 2.48417 45.2138 2.50554 44.9773 2.57417C44.7408 2.64281 44.5202 2.75735 44.328 2.91127C44.1357 3.06518 43.9757 3.25546 43.857 3.47122C43.7383 3.68698 43.6633 3.92401 43.6363 4.16877L41.7613 21.0438C41.7066 21.5381 41.8505 22.0338 42.1613 22.422C42.4721 22.8102 42.9245 23.0591 43.4188 23.1138C43.9131 23.1685 44.4088 23.0246 44.797 22.7137C45.1852 22.4029 45.4341 21.9506 45.4888 21.4563L47.3638 4.58127C47.3909 4.33651 47.3695 4.08882 47.3009 3.85233C47.2322 3.61583 47.1177 3.39518 46.9638 3.20296C46.8098 3.01074 46.6196 2.85072 46.4038 2.73204C46.188 2.61336 45.951 2.53834 45.7063 2.51127Z" fill="#FE950B"/>
</svg>
