<svg width="72" height="60" viewBox="0 0 72 60" fill="none" xmlns="http://www.w3.org/2000/svg">
<path d="M36.8359 56.6953L35.3594 27L23.875 23.7188H4.18751C3.25782 23.7188 2.47907 23.4038 1.85126 22.7738C1.22345 22.1438 0.908449 21.365 0.906261 20.4375C0.904074 19.51 1.21907 18.7313 1.85126 18.1013C2.48345 17.4713 3.2622 17.1563 4.18751 17.1563H20.5938L41.1016 2.47268C41.8125 1.98049 42.5781 1.78908 43.3984 1.89846C44.2188 2.00783 44.9297 2.39065 45.5313 3.0469C46.1328 3.81252 46.3789 4.64596 46.2695 5.54721C46.1602 6.44846 45.7227 7.20096 44.957 7.80471L34.2109 15.5156H43.5625L67.0234 1.98049C67.625 1.59768 68.2955 1.4883 69.0349 1.65237C69.7742 1.81643 70.4436 2.25393 71.043 2.96487C71.6445 3.62112 71.8906 4.37362 71.7813 5.22237C71.6719 6.07112 71.2617 6.76783 70.5508 7.31252L45.2031 27L43.7266 56.6953C43.6719 57.5703 43.3164 58.3086 42.6602 58.9102C42.0039 59.5117 41.1563 59.8125 40.1172 59.8125C39.2422 59.8125 38.4908 59.5117 37.863 58.9102C37.2352 58.3086 36.8928 57.5703 36.8359 56.6953ZM17.3125 13.875C15.5078 13.875 13.9634 13.233 12.6794 11.9489C11.3953 10.6649 10.7522 9.1194 10.75 7.31252C10.7478 5.50565 11.3909 3.96127 12.6794 2.6794C13.9678 1.39752 15.5122 0.754397 17.3125 0.750022C19.1128 0.745647 20.6583 1.38877 21.9489 2.6794C23.2395 3.97002 23.8816 5.5144 23.875 7.31252C23.8684 9.11065 23.2264 10.6561 21.9489 11.9489C20.6714 13.2417 19.1259 13.8838 17.3125 13.875Z" fill="#FE950B"/>
</svg>
