<svg width="116" height="149" viewBox="0 0 116 149" fill="none" xmlns="http://www.w3.org/2000/svg">
<rect width="116" height="148" transform="translate(0 0.5)" fill="#FE950B"/>
<path d="M46.6719 14.75C49.7187 14.75 52.5469 15.6969 54.875 17.3063V36.625H48.0812C47.3468 34.5379 45.8974 32.7782 43.9898 31.6573C42.0822 30.5365 39.8394 30.127 37.6588 30.5013C35.4782 30.8756 33.5004 32.0095 32.0757 33.7023C30.651 35.3951 29.8714 37.5375 29.875 39.75C29.88 41.9578 30.664 44.0929 32.0889 45.7793C33.5138 47.4657 35.4881 48.5951 37.664 48.9686C39.8399 49.3421 42.0779 48.9357 43.9835 47.8209C45.8892 46.7062 47.3403 44.9547 48.0812 42.875H54.875V99.1219C52.174 101.158 48.8822 102.256 45.5 102.25H44.5312C41.2015 102.25 37.959 101.186 35.2765 99.2131C32.5939 97.2405 30.6117 94.4626 29.6187 91.2844L29.0906 89.5844C24.9784 89.0176 21.2103 86.9817 18.4824 83.8528C15.7545 80.724 14.2511 76.7136 14.25 72.5625V71C14.2447 66.3846 15.9504 61.931 19.0375 58.5H31.4375C32.6807 58.5 33.873 58.9939 34.7521 59.873C35.6311 60.752 36.125 61.9443 36.125 63.1875V65.2938C34.0379 66.0282 32.2781 67.4776 31.1573 69.3852C30.0365 71.2928 29.6269 73.5356 30.0012 75.7162C30.3755 77.8968 31.5095 79.8746 33.2023 81.2993C34.8951 82.724 37.0375 83.5036 39.25 83.5C41.4577 83.495 43.5929 82.711 45.2793 81.2861C46.9657 79.8612 48.0951 77.8869 48.4686 75.711C48.8421 73.5351 48.4356 71.2971 47.3209 69.3915C46.2062 67.4858 44.4547 66.0347 42.375 65.2938V63.1875C42.375 60.2867 41.2227 57.5047 39.1715 55.4535C37.1203 53.4024 34.3383 52.25 31.4375 52.25H20.5125C18.4735 49.5502 17.3718 46.2583 17.375 42.875C17.3756 38.8434 18.9345 34.968 21.7258 32.059C24.5172 29.15 28.325 27.4325 32.3531 27.2656C32.8213 23.8 34.5303 20.6218 37.1634 18.3203C39.7964 16.0188 43.1748 14.7503 46.6719 14.75ZM69.3281 14.75C72.8252 14.7503 76.2036 16.0188 78.8366 18.3203C81.4697 20.6218 83.1787 23.8 83.6469 27.2656C86.8187 27.3987 89.8748 28.4948 92.4082 30.4079C94.9417 32.3211 96.8322 34.9606 97.8282 37.975C98.8242 40.9893 98.8783 44.2356 97.9834 47.2815C97.0885 50.3274 95.287 53.0284 92.8187 55.025C95.5483 56.7028 97.8024 59.0522 99.3659 61.8488C100.929 64.6454 101.75 67.796 101.75 71V72.5625C101.749 76.7136 100.245 80.724 97.5176 83.8528C94.7897 86.9817 91.0215 89.0176 86.9094 89.5844L86.3812 91.2844C85.3883 94.4626 83.4061 97.2405 80.7235 99.2131C78.041 101.186 74.7985 102.25 71.4687 102.25H70.5C67.1178 102.256 63.826 101.158 61.125 99.1219V77.25H68.9375C71.8383 77.25 74.6203 76.0977 76.6715 74.0465C78.7227 71.9953 79.875 69.2133 79.875 66.3125V64.2031C81.9598 63.4671 83.7172 62.0175 84.8362 60.1106C85.9553 58.2038 86.3639 55.9626 85.9898 53.7836C85.6157 51.6045 84.483 49.628 82.7921 48.2035C81.1012 46.7791 78.9609 45.9986 76.75 46C74.5391 45.9986 72.3988 46.7791 70.7079 48.2035C69.017 49.628 67.8843 51.6045 67.5102 53.7836C67.1361 55.9626 67.5447 58.2038 68.6637 60.1106C69.7828 62.0175 71.5402 63.4671 73.625 64.2031V66.3125C73.625 67.5557 73.1311 68.748 72.2521 69.6271C71.373 70.5061 70.1807 71 68.9375 71H61.125V17.3063C63.5348 15.6378 66.3971 14.7459 69.3281 14.75ZM39.25 71C40.0788 71 40.8737 71.3292 41.4597 71.9153C42.0458 72.5013 42.375 73.2962 42.375 74.125C42.375 74.9538 42.0458 75.7487 41.4597 76.3347C40.8737 76.9208 40.0788 77.25 39.25 77.25C38.4212 77.25 37.6263 76.9208 37.0403 76.3347C36.4542 75.7487 36.125 74.9538 36.125 74.125C36.125 73.2962 36.4542 72.5013 37.0403 71.9153C37.6263 71.3292 38.4212 71 39.25 71ZM76.75 52.25C77.5788 52.25 78.3737 52.5793 78.9597 53.1653C79.5458 53.7514 79.875 54.5462 79.875 55.375C79.875 56.2038 79.5458 56.9987 78.9597 57.5847C78.3737 58.1708 77.5788 58.5 76.75 58.5C75.9212 58.5 75.1263 58.1708 74.5403 57.5847C73.9542 56.9987 73.625 56.2038 73.625 55.375C73.625 54.5462 73.9542 53.7514 74.5403 53.1653C75.1263 52.5793 75.9212 52.25 76.75 52.25ZM39.25 36.625C40.0788 36.625 40.8737 36.9543 41.4597 37.5403C42.0458 38.1264 42.375 38.9212 42.375 39.75C42.375 40.5788 42.0458 41.3737 41.4597 41.9597C40.8737 42.5458 40.0788 42.875 39.25 42.875C38.4212 42.875 37.6263 42.5458 37.0403 41.9597C36.4542 41.3737 36.125 40.5788 36.125 39.75C36.125 38.9212 36.4542 38.1264 37.0403 37.5403C37.6263 36.9543 38.4212 36.625 39.25 36.625Z" fill="black"/>
<path d="M33.4545 141.547C33.1888 141.055 32.8998 140.562 32.5873 140.07C32.2826 139.578 31.9506 139.078 31.5912 138.57C31.0521 138.773 30.4857 138.926 29.892 139.027C29.2982 139.137 28.6888 139.191 28.0638 139.191C26.7123 139.191 25.4662 138.973 24.3256 138.535C23.1927 138.105 22.2123 137.492 21.3842 136.695C20.5638 135.898 19.9232 134.938 19.4623 133.812C19.0013 132.688 18.7709 131.434 18.7709 130.051C18.7709 129.168 18.8802 128.328 19.099 127.531C19.3177 126.734 19.6263 126 20.0248 125.328C20.4232 124.648 20.9037 124.035 21.4662 123.488C22.0287 122.941 22.6537 122.48 23.3412 122.105C24.0365 121.723 24.7787 121.43 25.5677 121.227C26.3646 121.016 27.1967 120.91 28.0638 120.91C28.931 120.91 29.767 121.012 30.5717 121.215C31.3842 121.41 32.142 121.695 32.8451 122.07C33.5482 122.445 34.1888 122.902 34.767 123.441C35.3451 123.98 35.8373 124.59 36.2435 125.27C36.6576 125.949 36.9779 126.691 37.2045 127.496C37.431 128.293 37.5443 129.145 37.5443 130.051C37.5443 130.879 37.4467 131.668 37.2513 132.418C37.056 133.16 36.7787 133.852 36.4193 134.492C36.0677 135.133 35.642 135.719 35.142 136.25C34.642 136.773 34.0873 137.234 33.4779 137.633C34.4154 138.383 35.3685 138.977 36.3373 139.414L33.4545 141.547ZM34.3217 130.051C34.3217 129.434 34.267 128.809 34.1576 128.176C34.056 127.535 33.8959 126.922 33.6771 126.336C33.4584 125.742 33.181 125.188 32.8451 124.672C32.517 124.148 32.1224 123.695 31.6615 123.312C31.2084 122.922 30.6927 122.617 30.1146 122.398C29.5365 122.172 28.892 122.059 28.181 122.059C27.4701 122.059 26.8256 122.172 26.2474 122.398C25.6693 122.625 25.1537 122.934 24.7006 123.324C24.2474 123.707 23.8529 124.16 23.517 124.684C23.181 125.199 22.9037 125.754 22.6849 126.348C22.4662 126.941 22.3021 127.555 22.1927 128.188C22.0912 128.82 22.0404 129.441 22.0404 130.051C22.0404 130.699 22.0873 131.348 22.181 131.996C22.2748 132.645 22.4232 133.266 22.6263 133.859C22.8295 134.445 23.0912 134.996 23.4115 135.512C23.7396 136.02 24.1302 136.461 24.5834 136.836C25.0365 137.211 25.5599 137.508 26.1537 137.727C26.7552 137.938 27.431 138.043 28.181 138.043C28.6732 138.043 29.1302 137.992 29.5521 137.891C29.974 137.789 30.3724 137.648 30.7474 137.469C29.9896 136.5 29.181 135.578 28.3217 134.703C27.4623 133.828 26.6068 133.055 25.7552 132.383L27.3607 131.105C27.6654 131.527 27.9935 131.965 28.3451 132.418C28.7045 132.871 29.0834 133.328 29.4818 133.789C29.8881 134.25 30.3099 134.707 30.7474 135.16C31.1849 135.605 31.6342 136.039 32.0951 136.461C32.4779 136.07 32.8099 135.629 33.0912 135.137C33.3724 134.637 33.6029 134.109 33.7826 133.555C33.9623 133 34.0951 132.426 34.181 131.832C34.2748 131.23 34.3217 130.637 34.3217 130.051ZM50.8707 127.672L50.1676 138.523L48.1051 138.711L47.9879 136.074C47.8082 136.512 47.5855 136.914 47.3199 137.281C47.0543 137.648 46.7457 137.965 46.3941 138.23C46.0504 138.496 45.6637 138.703 45.234 138.852C44.8043 139 44.3394 139.074 43.8394 139.074C43.0582 139.074 42.3668 138.918 41.7652 138.605C41.1715 138.301 40.6715 137.875 40.2652 137.328C39.8668 136.781 39.566 136.133 39.3629 135.383C39.1597 134.625 39.0582 133.801 39.0582 132.91C39.0582 131.949 39.1285 131.113 39.2691 130.402C39.4097 129.684 39.5699 129.078 39.7496 128.586C39.9527 128.016 40.1871 127.527 40.4527 127.121L43.8043 127.414C43.4215 127.875 43.0816 128.426 42.7847 129.066C42.5269 129.613 42.2926 130.293 42.0816 131.105C41.8707 131.918 41.7652 132.855 41.7652 133.918C41.7652 134.559 41.8394 135.109 41.9879 135.57C42.1363 136.031 42.3472 136.414 42.6207 136.719C42.8941 137.016 43.2222 137.234 43.6051 137.375C43.9957 137.516 44.4332 137.586 44.9176 137.586C45.3316 137.586 45.6988 137.473 46.0191 137.246C46.3394 137.02 46.6207 136.727 46.8629 136.367C47.1051 136.008 47.3082 135.602 47.4722 135.148C47.6441 134.695 47.7847 134.246 47.8941 133.801L47.648 127.484L50.8707 127.672ZM56.8142 124.672C56.8142 124.953 56.7596 125.219 56.6502 125.469C56.5486 125.719 56.4041 125.938 56.2166 126.125C56.0291 126.312 55.8103 126.461 55.5603 126.57C55.3103 126.68 55.0408 126.734 54.7517 126.734C54.4627 126.734 54.1892 126.68 53.9314 126.57C53.6814 126.461 53.4627 126.312 53.2752 126.125C53.0877 125.938 52.9392 125.719 52.8299 125.469C52.7205 125.219 52.6658 124.953 52.6658 124.672C52.6658 124.383 52.7205 124.113 52.8299 123.863C52.9392 123.605 53.0877 123.383 53.2752 123.195C53.4627 123.008 53.6814 122.859 53.9314 122.75C54.1892 122.641 54.4627 122.586 54.7517 122.586C55.0408 122.586 55.3103 122.641 55.5603 122.75C55.8103 122.859 56.0291 123.008 56.2166 123.195C56.4041 123.383 56.5486 123.605 56.6502 123.863C56.7596 124.113 56.8142 124.383 56.8142 124.672ZM56.4158 127.918L55.5252 139.191L53.2635 138.957L53.1228 127.742L56.4158 127.918ZM67.8672 135.453L67.5273 138.77L57.9062 138.406L64.0469 128.422H63.7539C63.2852 128.422 62.8086 128.496 62.3242 128.645C61.8398 128.793 61.3633 128.988 60.8945 129.23C60.4336 129.465 59.9883 129.73 59.5586 130.027C59.1289 130.316 58.7266 130.605 58.3516 130.895L57.8828 127.672L67.9609 127.555L60.8477 137.469C61.3945 137.461 61.9844 137.418 62.6172 137.34C63.25 137.262 63.8789 137.145 64.5039 136.988C65.1367 136.824 65.7422 136.617 66.3203 136.367C66.9062 136.117 67.4219 135.812 67.8672 135.453ZM79.0373 135.453L78.6975 138.77L69.0764 138.406L75.217 128.422H74.924C74.4553 128.422 73.9787 128.496 73.4943 128.645C73.01 128.793 72.5334 128.988 72.0647 129.23C71.6037 129.465 71.1584 129.73 70.7287 130.027C70.299 130.316 69.8967 130.605 69.5217 130.895L69.0529 127.672L79.1311 127.555L72.0178 137.469C72.5647 137.461 73.1545 137.418 73.7873 137.34C74.4201 137.262 75.049 137.145 75.674 136.988C76.3068 136.824 76.9123 136.617 77.4904 136.367C78.0764 136.117 78.592 135.812 79.0373 135.453ZM84.6059 124.672C84.6059 124.953 84.5512 125.219 84.4418 125.469C84.3402 125.719 84.1957 125.938 84.0082 126.125C83.8207 126.312 83.602 126.461 83.352 126.57C83.102 126.68 82.8324 126.734 82.5434 126.734C82.2543 126.734 81.9809 126.68 81.7231 126.57C81.4731 126.461 81.2543 126.312 81.0668 126.125C80.8793 125.938 80.7309 125.719 80.6215 125.469C80.5121 125.219 80.4574 124.953 80.4574 124.672C80.4574 124.383 80.5121 124.113 80.6215 123.863C80.7309 123.605 80.8793 123.383 81.0668 123.195C81.2543 123.008 81.4731 122.859 81.7231 122.75C81.9809 122.641 82.2543 122.586 82.5434 122.586C82.8324 122.586 83.102 122.641 83.352 122.75C83.602 122.859 83.8207 123.008 84.0082 123.195C84.1957 123.383 84.3402 123.605 84.4418 123.863C84.5512 124.113 84.6059 124.383 84.6059 124.672ZM84.2074 127.918L83.3168 139.191L81.0551 138.957L80.9145 127.742L84.2074 127.918ZM93.9244 138.359L94.2174 137.129C93.944 137.371 93.6393 137.59 93.3033 137.785C92.9752 137.98 92.6354 138.148 92.2838 138.289C91.9323 138.422 91.5807 138.523 91.2291 138.594C90.8854 138.672 90.569 138.711 90.2799 138.711C89.7721 138.711 89.2487 138.637 88.7096 138.488C88.1705 138.34 87.6823 138.117 87.2448 137.82C86.8073 137.523 86.4479 137.152 86.1666 136.707C85.8854 136.262 85.7448 135.746 85.7448 135.16C85.7448 134.395 85.8776 133.73 86.1432 133.168C86.4088 132.605 86.7682 132.141 87.2213 131.773C87.6823 131.406 88.2213 131.137 88.8385 130.965C89.4557 130.785 90.1198 130.695 90.8307 130.695C91.1666 130.695 91.5104 130.723 91.8619 130.777C92.2135 130.832 92.5573 130.914 92.8932 131.023C93.2291 131.133 93.5494 131.277 93.8541 131.457C94.1588 131.637 94.4323 131.848 94.6744 132.09C94.651 131.668 94.5924 131.223 94.4987 130.754C94.4127 130.285 94.2721 129.859 94.0768 129.477C93.8893 129.086 93.6354 128.766 93.3151 128.516C92.9948 128.258 92.5885 128.129 92.0963 128.129C91.3776 128.129 90.7682 128.316 90.2682 128.691C89.776 129.059 89.4362 129.594 89.2487 130.297L86.2018 129.98C86.3893 129.496 86.6549 129.07 86.9987 128.703C87.3424 128.328 87.7291 128.016 88.1588 127.766C88.5963 127.516 89.0612 127.328 89.5533 127.203C90.0455 127.07 90.5416 127.004 91.0416 127.004C91.8073 127.004 92.4908 127.113 93.0924 127.332C93.7018 127.551 94.2369 127.852 94.6979 128.234C95.1588 128.617 95.5494 129.07 95.8698 129.594C96.1901 130.109 96.4518 130.668 96.6549 131.27C96.858 131.863 97.0065 132.488 97.1002 133.145C97.194 133.793 97.2408 134.441 97.2408 135.09C97.2408 135.668 97.2096 136.242 97.1471 136.812C97.0846 137.375 96.9948 137.938 96.8776 138.5L93.9244 138.359ZM94.5455 135.043C94.569 134.863 94.5846 134.688 94.5924 134.516C94.608 134.344 94.6237 134.168 94.6393 133.988C94.6002 133.621 94.4713 133.297 94.2526 133.016C94.0338 132.727 93.7682 132.484 93.4557 132.289C93.1432 132.086 92.8033 131.934 92.4362 131.832C92.069 131.73 91.7096 131.68 91.358 131.68C90.9518 131.68 90.5729 131.75 90.2213 131.891C89.8698 132.023 89.5651 132.215 89.3073 132.465C89.0494 132.715 88.8463 133.012 88.6979 133.355C88.5494 133.699 88.4752 134.078 88.4752 134.492C88.4752 134.914 88.5377 135.301 88.6627 135.652C88.7955 135.996 88.9791 136.297 89.2135 136.555C89.4479 136.805 89.733 137 90.069 137.141C90.4127 137.281 90.7955 137.352 91.2174 137.352C91.5924 137.352 91.9596 137.297 92.319 137.188C92.6783 137.078 93.0065 136.926 93.3033 136.73C93.608 136.527 93.8658 136.285 94.0768 136.004C94.2955 135.715 94.4518 135.395 94.5455 135.043Z" fill="black"/>
</svg>
