<svg width="76" height="76" viewBox="0 0 76 76" fill="none" xmlns="http://www.w3.org/2000/svg">
<path d="M38 0.5C17.3 0.5 0.5 17.3 0.5 38C0.5 58.7 17.3 75.5 38 75.5C58.7 75.5 75.5 58.7 75.5 38C75.5 17.3 58.7 0.5 38 0.5ZM41.75 12.875L46.8125 9.3125C53.5975 11.4116 59.4177 15.8499 63.2375 21.8375L61.775 26.8625L56.7125 28.5875L41.75 18.125V12.875ZM29.1875 9.3125L34.25 12.875V18.125L19.2875 28.5875L14.225 26.8625L12.7625 21.8375C16.6063 15.872 22.4175 11.4406 29.1875 9.3125ZM19.55 57.1625L15.275 57.5375C10.5748 52.1145 7.99128 45.1764 8 38C8 37.55 8.0375 37.1375 8.075 36.6875L11.825 33.95L17 35.75L22.475 52.025L19.55 57.1625ZM47.375 66.4625C44.4125 67.4375 41.2625 68 38 68C34.7375 68 31.5875 67.4375 28.625 66.4625L26.0375 60.875L28.4375 56.75H47.6L50 60.9125L47.375 66.4625ZM46.5125 49.25H29.4875L24.425 34.175L38 24.65L51.6125 34.175L46.5125 49.25ZM60.725 57.5375L56.45 57.1625L53.4875 52.025L58.9625 35.75L64.175 33.9875L67.925 36.725C67.9625 37.1375 68 37.55 68 38C68 45.4625 65.2625 52.2875 60.725 57.5375Z" fill="#FE950B"/>
</svg>
