<svg width="88" height="89" viewBox="0 0 88 89" fill="none" xmlns="http://www.w3.org/2000/svg">
<path d="M32.6719 0.750014C35.7187 0.750014 38.5469 1.69689 40.875 3.30626V22.625H34.0812C33.3468 20.5379 31.8974 18.7782 29.9898 17.6573C28.0822 16.5365 25.8394 16.127 23.6588 16.5013C21.4782 16.8756 19.5004 18.0095 18.0757 19.7023C16.651 21.3951 15.8714 23.5375 15.875 25.75C15.88 27.9578 16.664 30.0929 18.0889 31.7793C19.5138 33.4657 21.4881 34.5951 23.664 34.9686C25.8399 35.3421 28.0779 34.9357 29.9835 33.8209C31.8892 32.7062 33.3403 30.9547 34.0812 28.875H40.875V85.1219C38.174 87.1576 34.8822 88.2559 31.5 88.25H30.5312C27.2015 88.2497 23.959 87.1856 21.2765 85.2131C18.5939 83.2405 16.6117 80.4626 15.6187 77.2844L15.0906 75.5844C10.9784 75.0176 7.21033 72.9817 4.48242 69.8528C1.75451 66.724 0.251119 62.7136 0.249997 58.5625V57C0.244686 52.3846 1.9504 47.931 5.0375 44.5H17.4375C18.6807 44.5 19.873 44.9939 20.7521 45.873C21.6311 46.752 22.125 47.9443 22.125 49.1875V51.2938C20.0379 52.0282 18.2781 53.4776 17.1573 55.3852C16.0365 57.2928 15.6269 59.5356 16.0012 61.7162C16.3755 63.8968 17.5095 65.8746 19.2023 67.2993C20.8951 68.724 23.0375 69.5036 25.25 69.5C27.4577 69.495 29.5929 68.711 31.2793 67.2861C32.9657 65.8612 34.0951 63.8869 34.4686 61.711C34.8421 59.5351 34.4356 57.2971 33.3209 55.3915C32.2062 53.4858 30.4547 52.0347 28.375 51.2938V49.1875C28.375 46.2867 27.2227 43.5047 25.1715 41.4535C23.1203 39.4024 20.3383 38.25 17.4375 38.25H6.5125C4.47346 35.5502 3.37179 32.2583 3.375 28.875C3.37557 24.8434 4.93448 20.968 7.72584 18.059C10.5172 15.15 14.325 13.4325 18.3531 13.2656C18.8213 9.80002 20.5303 6.62175 23.1634 4.32028C25.7964 2.01881 29.1748 0.750302 32.6719 0.750014ZM55.3281 0.750014C58.8252 0.750302 62.2036 2.01881 64.8366 4.32028C67.4697 6.62175 69.1787 9.80002 69.6469 13.2656C72.8187 13.3987 75.8748 14.4948 78.4082 16.4079C80.9417 18.3211 82.8322 20.9606 83.8282 23.975C84.8242 26.9893 84.8783 30.2356 83.9834 33.2815C83.0885 36.3274 81.287 39.0284 78.8187 41.025C81.5483 42.7028 83.8024 45.0522 85.3659 47.8488C86.9294 50.6454 87.7502 53.796 87.75 57V58.5625C87.7489 62.7136 86.2455 66.724 83.5176 69.8528C80.7897 72.9817 77.0215 75.0176 72.9094 75.5844L72.3812 77.2844C71.3883 80.4626 69.4061 83.2405 66.7235 85.2131C64.041 87.1856 60.7985 88.2497 57.4687 88.25H56.5C53.1178 88.2559 49.826 87.1576 47.125 85.1219V63.25H54.9375C57.8383 63.25 60.6203 62.0977 62.6715 60.0465C64.7227 57.9953 65.875 55.2133 65.875 52.3125V50.2031C67.9598 49.4671 69.7172 48.0175 70.8362 46.1106C71.9553 44.2038 72.3639 41.9626 71.9898 39.7836C71.6157 37.6045 70.483 35.628 68.7921 34.2035C67.1012 32.7791 64.9609 31.9986 62.75 32C60.5391 31.9986 58.3988 32.7791 56.7079 34.2035C55.017 35.628 53.8843 37.6045 53.5102 39.7836C53.1361 41.9626 53.5447 44.2038 54.6637 46.1106C55.7828 48.0175 57.5402 49.4671 59.625 50.2031V52.3125C59.625 53.5557 59.1311 54.748 58.2521 55.6271C57.373 56.5061 56.1807 57 54.9375 57H47.125V3.30626C49.5348 1.63781 52.3971 0.745869 55.3281 0.750014ZM25.25 57C26.0788 57 26.8737 57.3292 27.4597 57.9153C28.0458 58.5013 28.375 59.2962 28.375 60.125C28.375 60.9538 28.0458 61.7487 27.4597 62.3347C26.8737 62.9208 26.0788 63.25 25.25 63.25C24.4212 63.25 23.6263 62.9208 23.0403 62.3347C22.4542 61.7487 22.125 60.9538 22.125 60.125C22.125 59.2962 22.4542 58.5013 23.0403 57.9153C23.6263 57.3292 24.4212 57 25.25 57ZM62.75 38.25C63.5788 38.25 64.3737 38.5793 64.9597 39.1653C65.5458 39.7514 65.875 40.5462 65.875 41.375C65.875 42.2038 65.5458 42.9987 64.9597 43.5847C64.3737 44.1708 63.5788 44.5 62.75 44.5C61.9212 44.5 61.1263 44.1708 60.5403 43.5847C59.9542 42.9987 59.625 42.2038 59.625 41.375C59.625 40.5462 59.9542 39.7514 60.5403 39.1653C61.1263 38.5793 61.9212 38.25 62.75 38.25ZM25.25 22.625C26.0788 22.625 26.8737 22.9543 27.4597 23.5403C28.0458 24.1264 28.375 24.9212 28.375 25.75C28.375 26.5788 28.0458 27.3737 27.4597 27.9597C26.8737 28.5458 26.0788 28.875 25.25 28.875C24.4212 28.875 23.6263 28.5458 23.0403 27.9597C22.4542 27.3737 22.125 26.5788 22.125 25.75C22.125 24.9212 22.4542 24.1264 23.0403 23.5403C23.6263 22.9543 24.4212 22.625 25.25 22.625Z" fill="black"/>
</svg>
