<svg width="74" height="74" viewBox="0 0 74 74" fill="none" xmlns="http://www.w3.org/2000/svg">
<path d="M27.1262 0.4375H46.8738C50.9688 0.4375 54.2163 0.4375 56.83 0.65125C59.5075 0.86875 61.7687 1.32625 63.8387 2.37625C67.1899 4.08567 69.9138 6.8122 71.62 10.165C72.6738 12.2275 73.1313 14.4925 73.3488 17.17C73.5625 19.7838 73.5625 23.0312 73.5625 27.1262V46.8738C73.5625 50.9688 73.5625 54.2163 73.3488 56.83C73.1313 59.5075 72.6738 61.7687 71.6237 63.8387C69.9153 67.1893 67.1902 69.9132 63.8387 71.62C61.7687 72.6738 59.5075 73.1313 56.83 73.3488C54.2163 73.5625 50.9688 73.5625 46.8738 73.5625H27.1262C23.0312 73.5625 19.7838 73.5625 17.17 73.3488C14.4925 73.1313 12.2312 72.6738 10.165 71.6237C6.81302 69.9159 4.0878 67.1907 2.38 63.8387C1.32625 61.7687 0.86875 59.5075 0.65125 56.83C0.4375 54.2163 0.4375 50.9688 0.4375 46.8738V27.1262C0.4375 23.0312 0.4375 19.7838 0.65125 17.17C0.86875 14.4925 1.32625 12.2312 2.37625 10.165C4.08503 6.81245 6.81163 4.08717 10.165 2.38C12.2275 1.32625 14.4925 0.86875 17.17 0.65125C19.7838 0.4375 23.0312 0.4375 27.1262 0.4375ZM27.625 17.7812C27.625 17.0353 27.3287 16.32 26.8012 15.7925C26.2738 15.2651 25.5584 14.9688 24.8125 14.9688C24.0666 14.9688 23.3512 15.2651 22.8238 15.7925C22.2963 16.32 22 17.0353 22 17.7812V22.4688H17.3125C16.5666 22.4688 15.8512 22.7651 15.3238 23.2925C14.7963 23.82 14.5 24.5353 14.5 25.2812C14.5 26.0272 14.7963 26.7425 15.3238 27.27C15.8512 27.7974 16.5666 28.0938 17.3125 28.0938H22V32.7812C22 33.5272 22.2963 34.2425 22.8238 34.77C23.3512 35.2974 24.0666 35.5938 24.8125 35.5938C25.5584 35.5938 26.2738 35.2974 26.8012 34.77C27.3287 34.2425 27.625 33.5272 27.625 32.7812V28.0938H32.3125C33.0584 28.0938 33.7738 27.7974 34.3012 27.27C34.8287 26.7425 35.125 26.0272 35.125 25.2812C35.125 24.5353 34.8287 23.82 34.3012 23.2925C33.7738 22.7651 33.0584 22.4688 32.3125 22.4688H27.625V17.7812ZM43.5625 17.7812C42.8166 17.7812 42.1012 18.0776 41.5738 18.605C41.0463 19.1325 40.75 19.8478 40.75 20.5938C40.75 21.3397 41.0463 22.055 41.5738 22.5825C42.1012 23.1099 42.8166 23.4062 43.5625 23.4062H56.6875C57.4334 23.4062 58.1488 23.1099 58.6762 22.5825C59.2037 22.055 59.5 21.3397 59.5 20.5938C59.5 19.8478 59.2037 19.1325 58.6762 18.605C58.1488 18.0776 57.4334 17.7812 56.6875 17.7812H43.5625ZM40.75 29.9688C40.75 31.5212 42.01 32.7812 43.5625 32.7812H56.6875C57.4334 32.7812 58.1488 32.4849 58.6762 31.9575C59.2037 31.43 59.5 30.7147 59.5 29.9688C59.5 29.2228 59.2037 28.5075 58.6762 27.98C58.1488 27.4526 57.4334 27.1562 56.6875 27.1562H43.5625C42.8166 27.1562 42.1012 27.4526 41.5738 27.98C41.0463 28.5075 40.75 29.2228 40.75 29.9688ZM46.8625 43.6225C46.605 43.3462 46.2945 43.1245 45.9495 42.9708C45.6045 42.8171 45.2321 42.7344 44.8545 42.7278C44.4768 42.7211 44.1017 42.7906 43.7515 42.932C43.4013 43.0735 43.0832 43.284 42.8161 43.5511C42.549 43.8182 42.3385 44.1363 42.197 44.4865C42.0556 44.8367 41.9861 45.2118 41.9928 45.5895C41.9994 45.9671 42.0821 46.3395 42.2358 46.6845C42.3895 47.0295 42.6112 47.34 42.8875 47.5975L46.2025 50.9163L42.8875 54.2312C42.6112 54.4887 42.3895 54.7992 42.2358 55.1442C42.0821 55.4892 41.9994 55.8617 41.9928 56.2393C41.9861 56.6169 42.0556 56.992 42.197 57.3422C42.3385 57.6924 42.549 58.0106 42.8161 58.2776C43.0832 58.5447 43.4013 58.7553 43.7515 58.8967C44.1017 59.0382 44.4768 59.1076 44.8545 59.101C45.2321 59.0943 45.6045 59.0117 45.9495 58.8579C46.2945 58.7042 46.605 58.4826 46.8625 58.2063L50.1775 54.8913L53.4925 58.2063C54.0257 58.7031 54.7308 58.9735 55.4595 58.9607C56.1881 58.9478 56.8833 58.6526 57.3986 58.1373C57.9139 57.622 58.2091 56.9268 58.2219 56.1982C58.2348 55.4696 57.9643 54.7644 57.4675 54.2312L54.1563 50.9163L57.4712 47.6012C57.968 47.0681 58.2385 46.3629 58.2257 45.6343C58.2128 44.9057 57.9176 44.2105 57.4023 43.6952C56.887 43.1799 56.1918 42.8847 55.4632 42.8718C54.7346 42.859 54.0294 43.1295 53.4963 43.6263L50.1775 46.9375L46.8625 43.6225ZM15.4375 50.5938C15.4375 52.1463 16.6975 53.4062 18.25 53.4062H31.375C32.1209 53.4062 32.8363 53.1099 33.3637 52.5825C33.8912 52.055 34.1875 51.3397 34.1875 50.5938C34.1875 49.8478 33.8912 49.1325 33.3637 48.605C32.8363 48.0776 32.1209 47.7812 31.375 47.7812H18.25C17.5041 47.7812 16.7887 48.0776 16.2613 48.605C15.7338 49.1325 15.4375 49.8478 15.4375 50.5938Z" fill="#FE950B"/>
</svg>
