<svg width="80" height="64" viewBox="0 0 80 64" fill="none" xmlns="http://www.w3.org/2000/svg">
<path d="M0.625 8.375C0.625 4.04375 4.16875 0.5 8.5 0.5H71.5C73.5886 0.5 75.5916 1.32968 77.0685 2.80653C78.5453 4.28338 79.375 6.28642 79.375 8.375V55.625C79.375 57.7136 78.5453 59.7166 77.0685 61.1935C75.5916 62.6703 73.5886 63.5 71.5 63.5H8.5C6.41142 63.5 4.40838 62.6703 2.93153 61.1935C1.45469 59.7166 0.625 57.7136 0.625 55.625V8.375ZM24.25 8.375V55.625H55.75V8.375H24.25ZM8.5 12.3125V20.1875H16.375V12.3125H8.5ZM8.5 28.0625V35.9375H16.375V28.0625H8.5ZM8.5 43.8125V51.6875H16.375V43.8125H8.5ZM63.625 12.3125V20.1875H71.5V12.3125H63.625ZM63.625 28.0625V35.9375H71.5V28.0625H63.625ZM63.625 43.8125V51.6875H71.5V43.8125H63.625ZM32.125 20.1875L51.8125 32L32.125 43.8125V20.1875Z" fill="#FE950B"/>
</svg>
