<svg width="14" height="14" viewBox="0 0 14 14" fill="none" xmlns="http://www.w3.org/2000/svg">
<path d="M11.436 10.73L13.389 12.682C13.4801 12.7763 13.5305 12.9026 13.5293 13.0337C13.5282 13.1648 13.4756 13.2902 13.3829 13.3829C13.2902 13.4756 13.1648 13.5282 13.0337 13.5293C12.9026 13.5304 12.7763 13.48 12.682 13.389L10.729 11.436C9.45276 12.5294 7.80261 13.086 6.12481 12.989C4.44702 12.8921 2.872 12.149 1.73025 10.9158C0.588501 9.68257 -0.031221 8.05507 0.00112325 6.37478C0.0334675 4.6945 0.715364 3.09205 1.90373 1.90369C3.09209 0.715324 4.69454 0.0334274 6.37482 0.00108319C8.05511 -0.031261 9.68261 0.588461 10.9158 1.73021C12.149 2.87196 12.8921 4.44698 12.9891 6.12477C13.0861 7.80257 12.5294 9.45272 11.436 10.729V10.73ZM6.5 12C7.95869 12 9.35764 11.4205 10.3891 10.389C11.4205 9.3576 12 7.95865 12 6.49996C12 5.04127 11.4205 3.64232 10.3891 2.61087C9.35764 1.57942 7.95869 0.999959 6.5 0.999959C5.04131 0.999959 3.64236 1.57942 2.61091 2.61087C1.57946 3.64232 0.999999 5.04127 0.999999 6.49996C0.999999 7.95865 1.57946 9.3576 2.61091 10.389C3.64236 11.4205 5.04131 12 6.5 12Z" fill="#ABB0BC"/>
</svg>
