<svg width="90" height="74" viewBox="0 0 90 74" fill="none" xmlns="http://www.w3.org/2000/svg">
<path d="M86.025 28.075H86.25C87.2446 28.075 88.1984 27.6799 88.9017 26.9767C89.6049 26.2734 90 25.3196 90 24.325V20.575C90 19.5804 89.6049 18.6266 88.9017 17.9234C88.1984 17.2201 87.2446 16.825 86.25 16.825H81.1875C80.3111 16.8294 79.4478 17.0384 78.6665 17.4356C77.8852 17.8328 77.2075 18.407 76.6875 19.1125C76.632 19.1496 76.5667 19.1694 76.5 19.1694C76.4333 19.1694 76.368 19.1496 76.3125 19.1125C76.2526 19.0899 76.1982 19.0548 76.1529 19.0096C76.1077 18.9643 76.0726 18.9099 76.05 18.85L74.25 9.85C73.7389 7.30202 72.3615 5.00955 70.3517 3.36208C68.3419 1.7146 65.8237 0.813723 63.225 0.8125H26.775C24.1604 0.818838 21.6296 1.7357 19.6176 3.40551C17.6056 5.07533 16.2381 7.39381 15.75 9.9625L13.95 18.9625C13.9274 19.0224 13.8923 19.0768 13.8471 19.1221C13.8018 19.1673 13.7474 19.2024 13.6875 19.225C13.632 19.2621 13.5667 19.2819 13.5 19.2819C13.4333 19.2819 13.368 19.2621 13.3125 19.225C12.7925 18.5195 12.1148 17.9453 11.3335 17.5481C10.5522 17.1509 9.68893 16.9419 8.8125 16.9375H3.75C2.75544 16.9375 1.80161 17.3326 1.09835 18.0359C0.395088 18.7391 0 19.6929 0 20.6875L0 24.4375C0 25.4321 0.395088 26.3859 1.09835 27.0892C1.80161 27.7924 2.75544 28.1875 3.75 28.1875H3.975C4.16225 28.1899 4.34447 28.2484 4.4982 28.3553C4.65192 28.4623 4.7701 28.6128 4.8375 28.7875C4.93021 28.9401 4.97923 29.1152 4.97923 29.2938C4.97923 29.4723 4.93021 29.6474 4.8375 29.8C1.81267 32.8323 0.0790439 36.9177 0 41.2L0 56.2C0.000184992 57.2632 0.303726 58.3043 0.874979 59.2011C1.44623 60.0978 2.26148 60.8129 3.225 61.2625C3.38033 61.3478 3.51056 61.4723 3.60269 61.6236C3.69481 61.775 3.74561 61.9479 3.75 62.125V67.45C3.75 68.9418 4.34263 70.3726 5.39752 71.4275C6.45242 72.4824 7.88316 73.075 9.375 73.075H16.875C18.3668 73.075 19.7976 72.4824 20.8525 71.4275C21.9074 70.3726 22.5 68.9418 22.5 67.45V62.8C22.4998 62.5478 22.5974 62.3053 22.7722 62.1235C22.947 61.9417 23.1855 61.8347 23.4375 61.825H66.5625C66.8145 61.8347 67.053 61.9417 67.2278 62.1235C67.4026 62.3053 67.5002 62.5478 67.5 62.8V67.45C67.5 68.9418 68.0926 70.3726 69.1475 71.4275C70.2024 72.4824 71.6332 73.075 73.125 73.075H80.625C82.1168 73.075 83.5476 72.4824 84.6025 71.4275C85.6574 70.3726 86.25 68.9418 86.25 67.45V62.125C86.2544 61.9479 86.3052 61.775 86.3973 61.6236C86.4894 61.4723 86.6197 61.3478 86.775 61.2625C87.7385 60.8129 88.5538 60.0978 89.125 59.2011C89.6963 58.3043 89.9998 57.2632 90 56.2V41.2C89.9901 36.8997 88.3093 32.7716 85.3125 29.6875C85.2198 29.5349 85.1708 29.3598 85.1708 29.1813C85.1708 29.0027 85.2198 28.8276 85.3125 28.675C85.3687 28.5216 85.464 28.3855 85.589 28.2803C85.7139 28.175 85.8643 28.1043 86.025 28.075ZM12.1875 58.075H5.625C5.12772 58.075 4.65081 57.8775 4.29917 57.5258C3.94754 57.1742 3.75 56.6973 3.75 56.2V54.325C3.75 53.8277 3.94754 53.3508 4.29917 52.9992C4.65081 52.6475 5.12772 52.45 5.625 52.45H12.1875C12.9368 52.4599 13.6522 52.7645 14.1786 53.2979C14.705 53.8313 15.0001 54.5506 15 55.3C14.9901 56.0394 14.6895 56.7452 14.1631 57.2645C13.6367 57.7839 12.927 58.0751 12.1875 58.075ZM20.1375 42.7375C20.0541 42.8463 19.946 42.9337 19.8221 42.9924C19.6982 43.0511 19.562 43.0794 19.425 43.075H15C13.1857 43.0942 11.426 42.455 10.0469 41.2759C8.66785 40.0968 7.76299 38.4577 7.5 36.6625C7.48123 36.5287 7.49161 36.3923 7.53045 36.2629C7.56929 36.1334 7.63565 36.0139 7.725 35.9125C7.90965 35.7117 8.16518 35.5907 8.4375 35.575H16.875C17.4057 35.6009 17.915 35.7919 18.3318 36.1213C18.7487 36.4508 19.0522 36.9022 19.2 37.4125L20.325 41.9125C20.3606 42.0551 20.3622 42.204 20.3296 42.3474C20.297 42.4907 20.2312 42.6243 20.1375 42.7375ZM60 41.8L57.975 47.95C57.352 49.8121 56.1579 51.4305 54.5623 52.575C52.9668 53.7194 51.0511 54.3318 49.0875 54.325H41.025C39.0614 54.3318 37.1457 53.7194 35.5502 52.575C33.9546 51.4305 32.7605 49.8121 32.1375 47.95L30 41.8C29.8953 41.522 29.8611 41.2224 29.9004 40.928C29.9396 40.6335 30.0512 40.3534 30.225 40.1125C30.4036 39.872 30.6352 39.6758 30.9018 39.5392C31.1684 39.4026 31.463 39.3293 31.7625 39.325H58.0125C58.312 39.3293 58.6066 39.4026 58.8732 39.5392C59.1398 39.6758 59.3714 39.872 59.55 40.1125C59.7621 40.3325 59.9146 40.6028 59.9934 40.898C60.0721 41.1932 60.0744 41.5037 60 41.8ZM69.1875 23.9875C69.1004 24.0921 68.9915 24.1765 68.8684 24.2348C68.7454 24.2931 68.6111 24.3239 68.475 24.325H21.6375C21.5014 24.3239 21.3671 24.2931 21.244 24.2348C21.121 24.1765 21.0121 24.0921 20.925 23.9875C20.8626 23.8723 20.83 23.7435 20.83 23.6125C20.83 23.4815 20.8626 23.3527 20.925 23.2375L23.2875 11.425C23.4628 10.5652 23.9341 9.79414 24.6193 9.24598C25.3045 8.69783 26.1602 8.40731 27.0375 8.425H63.4875C64.3648 8.40731 65.2205 8.69783 65.9057 9.24598C66.5909 9.79414 67.0622 10.5652 67.2375 11.425L69.6 23.2375C69.6016 23.4016 69.5518 23.5622 69.4577 23.6966C69.3636 23.8311 69.2298 23.9328 69.075 23.9875H69.1875ZM70.6875 43.075C70.5505 43.0794 70.4143 43.0511 70.2904 42.9924C70.1665 42.9337 70.0584 42.8463 69.975 42.7375C69.8813 42.6243 69.8155 42.4907 69.7829 42.3474C69.7503 42.204 69.7519 42.0551 69.7875 41.9125L70.9125 37.4125C71.0603 36.9022 71.3638 36.4508 71.7807 36.1213C72.1975 35.7919 72.7068 35.6009 73.2375 35.575H81.6C81.8723 35.5907 82.1279 35.7117 82.3125 35.9125C82.4018 36.0139 82.4682 36.1334 82.507 36.2629C82.5459 36.3923 82.5563 36.5287 82.5375 36.6625C82.2745 38.4577 81.3696 40.0968 79.9906 41.2759C78.6115 42.455 76.8518 43.0942 75.0375 43.075H70.6875ZM86.3625 54.325V56.2C86.3625 56.6973 86.165 57.1742 85.8133 57.5258C85.4617 57.8775 84.9848 58.075 84.4875 58.075H77.8125C77.073 58.0751 76.3633 57.7839 75.8369 57.2645C75.3105 56.7452 75.0099 56.0394 75 55.3C74.9999 54.5506 75.295 53.8313 75.8214 53.2979C76.3478 52.7645 77.0631 52.4599 77.8125 52.45H84.375C84.8723 52.45 85.3492 52.6475 85.7008 52.9992C86.0525 53.3508 86.25 53.8277 86.25 54.325H86.3625Z" fill="#FE950B"/>
</svg>
