<svg width="86" height="62" viewBox="0 0 86 62" fill="none" xmlns="http://www.w3.org/2000/svg">
<path d="M82.9252 29.1332C79.1969 12.2775 73.5859 3.28102 65.2627 0.823595C63.5131 0.310325 61.6983 0.0539368 59.875 0.0624616C57.465 0.0624616 55.3662 0.649571 53.1461 1.27184C50.4707 2.02242 47.4314 2.87496 43 2.87496C38.5686 2.87496 35.5275 2.02418 32.8469 1.27359C30.625 0.649571 28.5279 0.0624616 26.125 0.0624616C24.2396 0.0558331 22.3625 0.311405 20.5475 0.821837C12.2682 3.26871 6.66074 12.2617 2.87792 29.1226C-1.18965 47.2668 0.812495 58.7224 8.49238 61.3802C9.54508 61.7514 10.6527 61.9427 11.7689 61.9462C17.0301 61.9462 21.2488 57.564 24.1316 53.9763C27.3889 49.9158 31.2016 47.8556 43 47.8556C53.5381 47.8556 57.8992 49.2847 61.6662 53.9763C64.034 56.9259 66.2717 58.9896 68.5041 60.2886C71.473 62.0148 74.4402 62.398 77.3213 61.4084C81.86 59.8597 84.4615 55.7658 85.0557 49.2373C85.5074 44.231 84.8113 37.655 82.9252 29.1332ZM34.5625 28.1875H28.9375V33.8125C28.9375 34.5584 28.6412 35.2738 28.1137 35.8012C27.5863 36.3286 26.8709 36.625 26.125 36.625C25.3791 36.625 24.6637 36.3286 24.1363 35.8012C23.6088 35.2738 23.3125 34.5584 23.3125 33.8125V28.1875H17.6875C16.9416 28.1875 16.2262 27.8911 15.6988 27.3637C15.1713 26.8363 14.875 26.1209 14.875 25.375C14.875 24.629 15.1713 23.9137 15.6988 23.3862C16.2262 22.8588 16.9416 22.5625 17.6875 22.5625H23.3125V16.9375C23.3125 16.1915 23.6088 15.4762 24.1363 14.9487C24.6637 14.4213 25.3791 14.125 26.125 14.125C26.8709 14.125 27.5863 14.4213 28.1137 14.9487C28.6412 15.4762 28.9375 16.1915 28.9375 16.9375V22.5625H34.5625C35.3084 22.5625 36.0238 22.8588 36.5512 23.3862C37.0787 23.9137 37.375 24.629 37.375 25.375C37.375 26.1209 37.0787 26.8363 36.5512 27.3637C36.0238 27.8911 35.3084 28.1875 34.5625 28.1875ZM49.3281 28.8906C48.6328 28.8906 47.9531 28.6844 47.3749 28.2981C46.7968 27.9118 46.3462 27.3627 46.0801 26.7203C45.814 26.0779 45.7444 25.3711 45.8801 24.6891C46.0157 24.0071 46.3505 23.3807 46.8422 22.889C47.3339 22.3974 47.9603 22.0625 48.6423 21.9269C49.3242 21.7912 50.0311 21.8609 50.6735 22.1269C51.3159 22.393 51.865 22.8436 52.2513 23.4218C52.6376 23.9999 52.8437 24.6796 52.8437 25.375C52.8437 26.3074 52.4734 27.2016 51.814 27.8609C51.1547 28.5202 50.2605 28.8906 49.3281 28.8906ZM57.0625 36.625C56.3668 36.625 55.6867 36.4185 55.1084 36.0319C54.5301 35.6452 54.0795 35.0956 53.8136 34.4527C53.5478 33.8098 53.4787 33.1024 53.6151 32.4202C53.7514 31.738 54.0872 31.1116 54.5797 30.6203C55.0722 30.129 55.6995 29.7949 56.382 29.6602C57.0646 29.5255 57.7717 29.5964 58.414 29.8639C59.0562 30.1313 59.6047 30.5833 59.9899 31.1626C60.3752 31.7419 60.5799 32.4224 60.5781 33.1181C60.5758 34.049 60.2044 34.941 59.5453 35.5984C58.8863 36.2558 57.9934 36.625 57.0625 36.625ZM57.0625 21.1562C56.3672 21.1562 55.6875 20.95 55.1093 20.5637C54.5312 20.1774 54.0806 19.6284 53.8145 18.986C53.5484 18.3436 53.4788 17.6367 53.6144 16.9547C53.7501 16.2728 54.0849 15.6463 54.5766 15.1547C55.0682 14.663 55.6947 14.3282 56.3766 14.1925C57.0586 14.0569 57.7655 14.1265 58.4079 14.3926C59.0503 14.6587 59.5993 15.1093 59.9856 15.6874C60.3719 16.2656 60.5781 16.9453 60.5781 17.6406C60.5781 18.573 60.2077 19.4672 59.5484 20.1265C58.8891 20.7858 57.9949 21.1562 57.0625 21.1562ZM64.7969 28.8906C64.1015 28.8906 63.4218 28.6844 62.8437 28.2981C62.2656 27.9118 61.8149 27.3627 61.5489 26.7203C61.2828 26.0779 61.2132 25.3711 61.3488 24.6891C61.4845 24.0071 61.8193 23.3807 62.3109 22.889C62.8026 22.3974 63.429 22.0625 64.111 21.9269C64.793 21.7912 65.4998 21.8609 66.1422 22.1269C66.7846 22.393 67.3337 22.8436 67.72 23.4218C68.1063 23.9999 68.3125 24.6796 68.3125 25.375C68.3125 26.3074 67.9421 27.2016 67.2828 27.8609C66.6235 28.5202 65.7293 28.8906 64.7969 28.8906Z" fill="#FE950B"/>
</svg>
